<svg xmlns="http://www.w3.org/2000/svg" width="1em" height="1em" viewBox="0 0 56 56"><path fill="black" d="M28 51.906c13.055 0 23.906-10.828 23.906-23.906c0-13.055-10.875-23.906-23.93-23.906C14.899 4.094 4.095 14.945 4.095 28c0 13.078 10.828 23.906 23.906 23.906M16.539 25.398c0-4.945 4.055-9 9.023-9c4.946 0 9 4.055 9 9a8.755 8.755 0 0 1-1.664 5.18l5.86 5.86c.328.328.539.773.539 1.218c0 .985-.68 1.664-1.594 1.664c-.539 0-.984-.164-1.43-.61l-5.789-5.788a8.9 8.9 0 0 1-4.922 1.5c-4.968 0-9.023-4.055-9.023-9.024m2.601 0c0 3.516 2.907 6.422 6.422 6.422c3.47 0 6.375-2.906 6.375-6.422c0-3.468-2.906-6.375-6.375-6.375c-3.515 0-6.422 2.907-6.422 6.375"/></svg>